<svg xmlns="http://www.w3.org/2000/svg" xmlns:xlink="http://www.w3.org/1999/xlink" zoomAndPan="magnify" preserveAspectRatio="xMidYMid meet" version="1.0" viewBox="21.95 142 275.56 91"><defs><g/><clipPath id="id1"><path d="M 21.949219 168 L 106 168 L 106 233 L 21.949219 233 Z M 21.949219 168 " clip-rule="nonzero"/></clipPath><clipPath id="id2"><path d="M 21.949219 142 L 88 142 L 88 194 L 21.949219 194 Z M 21.949219 142 " clip-rule="nonzero"/></clipPath></defs><g clip-path="url(#id1)"><path fill="#ffffff" d="M 95.273438 169.707031 L 92.507812 168.125 L 89.800781 175.222656 L 78.996094 203.511719 L 78.640625 204.445312 C 78.269531 210.023438 71.3125 214.105469 63.101562 213.566406 C 54.886719 213.03125 48.53125 208.070312 48.902344 202.496094 C 49.273438 196.921875 56.230469 192.835938 64.441406 193.375 C 68.773438 193.660156 72.589844 195.175781 75.175781 197.359375 L 76.496094 193.988281 L 84.132812 174.507812 L 57.515625 171.140625 L 56.550781 173.816406 L 46.925781 200.4375 C 46.554688 206.011719 39.597656 210.097656 31.386719 209.554688 C 27.734375 209.316406 24.449219 208.203125 21.957031 206.546875 L 21.957031 211.75 C 21.957031 227.414062 39.03125 237.203125 52.6875 229.375 L 78.726562 214.441406 L 95.273438 204.953125 C 108.929688 197.121094 108.929688 177.539062 95.273438 169.707031 " fill-opacity="1" fill-rule="nonzero"/></g><g clip-path="url(#id2)"><path fill="#ffffff" d="M 52.6875 145.289062 C 39.03125 137.457031 21.957031 147.246094 21.957031 162.910156 L 21.957031 191.667969 C 24.777344 189.996094 28.59375 189.09375 32.726562 189.363281 C 36.996094 189.644531 40.757812 191.117188 43.339844 193.25 L 51.039062 171.953125 L 54.90625 161.25 L 54.933594 161.046875 L 87.304688 165.140625 L 52.6875 145.289062 " fill-opacity="1" fill-rule="nonzero"/></g><g fill="#ffffff" fill-opacity="1"><g transform="translate(119.625923, 187.985174)"><g><path d="M 4.0625 0.171875 C 3.5 0.171875 3.046875 0.00390625 2.703125 -0.328125 C 2.367188 -0.671875 2.203125 -1.132812 2.203125 -1.71875 L 2.203125 -18.703125 C 2.203125 -19.253906 2.363281 -19.6875 2.6875 -20 C 3.007812 -20.3125 3.445312 -20.46875 4 -20.46875 L 11.140625 -20.46875 C 13.328125 -20.46875 15.03125 -19.921875 16.25 -18.828125 C 17.476562 -17.734375 18.09375 -16.195312 18.09375 -14.21875 C 18.09375 -12.25 17.476562 -10.710938 16.25 -9.609375 C 15.03125 -8.503906 13.328125 -7.953125 11.140625 -7.953125 L 5.953125 -7.953125 L 5.953125 -1.71875 C 5.953125 -1.132812 5.78125 -0.671875 5.4375 -0.328125 C 5.101562 0.00390625 4.644531 0.171875 4.0625 0.171875 Z M 10.6875 -10.828125 C 13.257812 -10.828125 14.546875 -11.953125 14.546875 -14.203125 C 14.546875 -16.441406 13.257812 -17.5625 10.6875 -17.5625 L 5.953125 -17.5625 L 5.953125 -10.828125 Z M 10.6875 -10.828125 "/></g></g></g><g fill="#ffffff" fill-opacity="1"><g transform="translate(140.256591, 187.985174)"><g><path d="M 3.984375 0 C 3.421875 0 2.984375 -0.148438 2.671875 -0.453125 C 2.359375 -0.765625 2.203125 -1.191406 2.203125 -1.734375 L 2.203125 -18.75 C 2.203125 -19.3125 2.367188 -19.757812 2.703125 -20.09375 C 3.046875 -20.4375 3.5 -20.609375 4.0625 -20.609375 C 4.644531 -20.609375 5.101562 -20.4375 5.4375 -20.09375 C 5.78125 -19.757812 5.953125 -19.3125 5.953125 -18.75 L 5.953125 -3.078125 L 14.109375 -3.078125 C 15.265625 -3.078125 15.84375 -2.5625 15.84375 -1.53125 C 15.84375 -0.507812 15.265625 0 14.109375 0 Z M 3.984375 0 "/></g></g></g><g fill="#ffffff" fill-opacity="1"><g transform="translate(157.840624, 187.985174)"><g><path d="M 20.75 -2.234375 C 20.875 -1.984375 20.9375 -1.734375 20.9375 -1.484375 C 20.9375 -1.035156 20.753906 -0.65625 20.390625 -0.34375 C 20.035156 -0.0390625 19.625 0.109375 19.15625 0.109375 C 18.851562 0.109375 18.566406 0.03125 18.296875 -0.125 C 18.023438 -0.289062 17.8125 -0.550781 17.65625 -0.90625 L 15.90625 -4.796875 L 5.6875 -4.796875 L 3.953125 -0.90625 C 3.796875 -0.550781 3.582031 -0.289062 3.3125 -0.125 C 3.039062 0.03125 2.738281 0.109375 2.40625 0.109375 C 1.957031 0.109375 1.550781 -0.0390625 1.1875 -0.34375 C 0.820312 -0.65625 0.640625 -1.035156 0.640625 -1.484375 C 0.640625 -1.734375 0.695312 -1.984375 0.8125 -2.234375 L 8.828125 -19.453125 C 9.003906 -19.835938 9.269531 -20.128906 9.625 -20.328125 C 9.976562 -20.535156 10.359375 -20.640625 10.765625 -20.640625 C 11.171875 -20.640625 11.550781 -20.535156 11.90625 -20.328125 C 12.269531 -20.128906 12.539062 -19.835938 12.71875 -19.453125 Z M 6.96875 -7.6875 L 14.625 -7.6875 L 10.796875 -16.3125 Z M 6.96875 -7.6875 "/></g></g></g><g fill="#ffffff" fill-opacity="1"><g transform="translate(180.850573, 187.985174)"><g><path d="M 14.984375 -19.96875 C 15.328125 -20.394531 15.742188 -20.609375 16.234375 -20.609375 C 16.671875 -20.609375 17.0625 -20.4375 17.40625 -20.09375 C 17.757812 -19.757812 17.9375 -19.363281 17.9375 -18.90625 C 17.9375 -18.507812 17.789062 -18.140625 17.5 -17.796875 L 10.921875 -9.75 L 10.921875 -1.71875 C 10.921875 -1.113281 10.742188 -0.644531 10.390625 -0.3125 C 10.046875 0.0078125 9.601562 0.171875 9.0625 0.171875 C 8.5 0.171875 8.039062 0.0078125 7.6875 -0.3125 C 7.34375 -0.644531 7.171875 -1.113281 7.171875 -1.71875 L 7.171875 -9.75 L 0.578125 -17.796875 C 0.285156 -18.140625 0.140625 -18.507812 0.140625 -18.90625 C 0.140625 -19.363281 0.3125 -19.757812 0.65625 -20.09375 C 1.007812 -20.4375 1.410156 -20.609375 1.859375 -20.609375 C 2.335938 -20.609375 2.753906 -20.394531 3.109375 -19.96875 L 9.0625 -12.59375 Z M 14.984375 -19.96875 "/></g></g></g><g fill="#ffffff" fill-opacity="1"><g transform="translate(200.407673, 187.985174)"><g><path d="M 4 0 C 3.445312 0 3.007812 -0.148438 2.6875 -0.453125 C 2.363281 -0.765625 2.203125 -1.203125 2.203125 -1.765625 L 2.203125 -18.703125 C 2.203125 -19.253906 2.363281 -19.6875 2.6875 -20 C 3.007812 -20.3125 3.445312 -20.46875 4 -20.46875 L 9.75 -20.46875 C 13.101562 -20.46875 15.703125 -19.570312 17.546875 -17.78125 C 19.398438 -15.988281 20.328125 -13.476562 20.328125 -10.25 C 20.328125 -7 19.398438 -4.476562 17.546875 -2.6875 C 15.703125 -0.894531 13.101562 0 9.75 0 Z M 9.515625 -3.046875 C 14.222656 -3.046875 16.578125 -5.445312 16.578125 -10.25 C 16.578125 -15.03125 14.222656 -17.421875 9.515625 -17.421875 L 5.953125 -17.421875 L 5.953125 -3.046875 Z M 9.515625 -3.046875 "/></g></g></g><g fill="#ffffff" fill-opacity="1"><g transform="translate(223.765812, 187.985174)"><g><path d="M 4.0625 0.171875 C 3.5 0.171875 3.046875 0 2.703125 -0.34375 C 2.367188 -0.695312 2.203125 -1.15625 2.203125 -1.71875 L 2.203125 -18.75 C 2.203125 -19.3125 2.367188 -19.757812 2.703125 -20.09375 C 3.046875 -20.4375 3.5 -20.609375 4.0625 -20.609375 C 4.644531 -20.609375 5.101562 -20.4375 5.4375 -20.09375 C 5.78125 -19.757812 5.953125 -19.3125 5.953125 -18.75 L 5.953125 -1.71875 C 5.953125 -1.15625 5.78125 -0.695312 5.4375 -0.34375 C 5.101562 0 4.644531 0.171875 4.0625 0.171875 Z M 4.0625 0.171875 "/></g></g></g><g fill="#ffffff" fill-opacity="1"><g transform="translate(233.399574, 187.985174)"><g><path d="M 11.328125 0.265625 C 9.328125 0.265625 7.597656 -0.160156 6.140625 -1.015625 C 4.679688 -1.867188 3.550781 -3.085938 2.75 -4.671875 C 1.957031 -6.253906 1.5625 -8.113281 1.5625 -10.25 C 1.5625 -12.375 1.953125 -14.222656 2.734375 -15.796875 C 3.523438 -17.378906 4.65625 -18.597656 6.125 -19.453125 C 7.59375 -20.304688 9.328125 -20.734375 11.328125 -20.734375 C 13.316406 -20.734375 15.039062 -20.304688 16.5 -19.453125 C 17.96875 -18.597656 19.09375 -17.378906 19.875 -15.796875 C 20.65625 -14.222656 21.046875 -12.375 21.046875 -10.25 C 21.046875 -8.113281 20.648438 -6.253906 19.859375 -4.671875 C 19.066406 -3.085938 17.9375 -1.867188 16.46875 -1.015625 C 15.007812 -0.160156 13.296875 0.265625 11.328125 0.265625 Z M 11.328125 -2.734375 C 13.203125 -2.734375 14.664062 -3.378906 15.71875 -4.671875 C 16.769531 -5.972656 17.296875 -7.832031 17.296875 -10.25 C 17.296875 -12.664062 16.769531 -14.515625 15.71875 -15.796875 C 14.664062 -17.085938 13.203125 -17.734375 11.328125 -17.734375 C 9.429688 -17.734375 7.953125 -17.085938 6.890625 -15.796875 C 5.835938 -14.515625 5.3125 -12.664062 5.3125 -10.25 C 5.3125 -7.832031 5.835938 -5.972656 6.890625 -4.671875 C 7.953125 -3.378906 9.429688 -2.734375 11.328125 -2.734375 Z M 11.328125 -2.734375 "/></g></g></g><g fill="#ffffff" fill-opacity="1"><g transform="translate(257.483114, 187.985174)"><g><path d="M 10.65625 0.265625 C 7.84375 0.265625 5.710938 -0.457031 4.265625 -1.90625 C 2.816406 -3.363281 2.09375 -5.488281 2.09375 -8.28125 L 2.09375 -18.75 C 2.09375 -19.3125 2.253906 -19.757812 2.578125 -20.09375 C 2.910156 -20.4375 3.359375 -20.609375 3.921875 -20.609375 C 4.484375 -20.609375 4.925781 -20.4375 5.25 -20.09375 C 5.582031 -19.757812 5.75 -19.3125 5.75 -18.75 L 5.75 -8.078125 C 5.75 -6.304688 6.164062 -4.972656 7 -4.078125 C 7.832031 -3.179688 9.050781 -2.734375 10.65625 -2.734375 C 12.238281 -2.734375 13.445312 -3.1875 14.28125 -4.09375 C 15.113281 -5 15.53125 -6.328125 15.53125 -8.078125 L 15.53125 -18.75 C 15.53125 -19.3125 15.691406 -19.757812 16.015625 -20.09375 C 16.347656 -20.4375 16.796875 -20.609375 17.359375 -20.609375 C 17.921875 -20.609375 18.363281 -20.4375 18.6875 -20.09375 C 19.019531 -19.757812 19.1875 -19.3125 19.1875 -18.75 L 19.1875 -8.28125 C 19.1875 -5.507812 18.457031 -3.390625 17 -1.921875 C 15.550781 -0.460938 13.4375 0.265625 10.65625 0.265625 Z M 10.65625 0.265625 "/></g></g></g><g fill="#ffffff" fill-opacity="1"><g transform="translate(280.231918, 187.985174)"><g><path d="M 9.296875 0.265625 C 7.796875 0.265625 6.382812 0.0664062 5.0625 -0.328125 C 3.738281 -0.722656 2.660156 -1.257812 1.828125 -1.9375 C 1.378906 -2.269531 1.15625 -2.738281 1.15625 -3.34375 C 1.15625 -3.75 1.273438 -4.097656 1.515625 -4.390625 C 1.765625 -4.691406 2.050781 -4.84375 2.375 -4.84375 C 2.726562 -4.84375 3.128906 -4.707031 3.578125 -4.4375 C 4.398438 -3.84375 5.265625 -3.410156 6.171875 -3.140625 C 7.085938 -2.867188 8.097656 -2.734375 9.203125 -2.734375 C 10.617188 -2.734375 11.703125 -2.976562 12.453125 -3.46875 C 13.210938 -3.957031 13.59375 -4.675781 13.59375 -5.625 C 13.59375 -6.363281 13.238281 -6.929688 12.53125 -7.328125 C 11.820312 -7.722656 10.644531 -8.109375 9 -8.484375 C 7.289062 -8.847656 5.90625 -9.269531 4.84375 -9.75 C 3.78125 -10.238281 2.976562 -10.859375 2.4375 -11.609375 C 1.894531 -12.367188 1.625 -13.328125 1.625 -14.484375 C 1.625 -15.679688 1.960938 -16.753906 2.640625 -17.703125 C 3.316406 -18.648438 4.257812 -19.390625 5.46875 -19.921875 C 6.675781 -20.460938 8.035156 -20.734375 9.546875 -20.734375 C 12.316406 -20.734375 14.570312 -19.992188 16.3125 -18.515625 C 16.5625 -18.304688 16.738281 -18.097656 16.84375 -17.890625 C 16.957031 -17.691406 17.015625 -17.4375 17.015625 -17.125 C 17.015625 -16.71875 16.890625 -16.363281 16.640625 -16.0625 C 16.398438 -15.769531 16.117188 -15.625 15.796875 -15.625 C 15.597656 -15.625 15.414062 -15.648438 15.25 -15.703125 C 15.09375 -15.765625 14.878906 -15.875 14.609375 -16.03125 C 13.804688 -16.601562 13.03125 -17.03125 12.28125 -17.3125 C 11.539062 -17.59375 10.628906 -17.734375 9.546875 -17.734375 C 8.234375 -17.734375 7.191406 -17.46875 6.421875 -16.9375 C 5.660156 -16.40625 5.28125 -15.664062 5.28125 -14.71875 C 5.28125 -13.925781 5.617188 -13.316406 6.296875 -12.890625 C 6.972656 -12.460938 8.125 -12.066406 9.75 -11.703125 C 11.476562 -11.316406 12.878906 -10.882812 13.953125 -10.40625 C 15.023438 -9.9375 15.847656 -9.332031 16.421875 -8.59375 C 16.992188 -7.851562 17.28125 -6.929688 17.28125 -5.828125 C 17.28125 -4.628906 16.941406 -3.570312 16.265625 -2.65625 C 15.597656 -1.738281 14.660156 -1.019531 13.453125 -0.5 C 12.242188 0.0078125 10.859375 0.265625 9.296875 0.265625 Z M 9.296875 0.265625 "/></g></g></g><g fill="#ffffff" fill-opacity="1"><g transform="translate(144.662669, 207.81794)"><g><path d="M 1.109375 -9.1875 L 2.4375 -9.1875 L 5.5625 -1.5625 L 5.671875 -1.5625 L 8.796875 -9.1875 L 10.125 -9.1875 L 10.125 0 L 9.078125 0 L 9.078125 -6.984375 L 9 -6.984375 L 6.125 0 L 5.125 0 L 2.25 -6.984375 L 2.15625 -6.984375 L 2.15625 0 L 1.109375 0 Z M 1.109375 -9.1875 "/></g></g></g><g fill="#ffffff" fill-opacity="1"><g transform="translate(159.01338, 207.81794)"><g><path d="M 7.140625 -9.1875 L 8.265625 -9.1875 L 8.265625 -3.109375 C 8.265625 -2.421875 8.097656 -1.832031 7.765625 -1.34375 C 7.441406 -0.851562 7.007812 -0.476562 6.46875 -0.21875 C 5.925781 0.03125 5.332031 0.15625 4.6875 0.15625 C 4.039062 0.15625 3.445312 0.03125 2.90625 -0.21875 C 2.363281 -0.476562 1.925781 -0.851562 1.59375 -1.34375 C 1.269531 -1.832031 1.109375 -2.421875 1.109375 -3.109375 L 1.109375 -9.1875 L 2.21875 -9.1875 L 2.21875 -3.109375 C 2.21875 -2.628906 2.332031 -2.222656 2.5625 -1.890625 C 2.789062 -1.554688 3.09375 -1.300781 3.46875 -1.125 C 3.84375 -0.957031 4.25 -0.875 4.6875 -0.875 C 5.125 -0.875 5.53125 -0.957031 5.90625 -1.125 C 6.28125 -1.300781 6.578125 -1.554688 6.796875 -1.890625 C 7.023438 -2.222656 7.140625 -2.628906 7.140625 -3.109375 Z M 7.140625 -9.1875 "/></g></g></g><g fill="#ffffff" fill-opacity="1"><g transform="translate(171.208791, 207.81794)"><g><path d="M 6.140625 -6.890625 C 6.085938 -7.347656 5.867188 -7.703125 5.484375 -7.953125 C 5.097656 -8.203125 4.628906 -8.328125 4.078125 -8.328125 C 3.460938 -8.328125 2.96875 -8.179688 2.59375 -7.890625 C 2.226562 -7.609375 2.046875 -7.25 2.046875 -6.8125 C 2.046875 -6.476562 2.144531 -6.207031 2.34375 -6 C 2.550781 -5.800781 2.789062 -5.644531 3.0625 -5.53125 C 3.34375 -5.425781 3.597656 -5.34375 3.828125 -5.28125 L 4.765625 -5.03125 C 5.003906 -4.96875 5.269531 -4.878906 5.5625 -4.765625 C 5.851562 -4.648438 6.132812 -4.5 6.40625 -4.3125 C 6.675781 -4.125 6.898438 -3.878906 7.078125 -3.578125 C 7.253906 -3.285156 7.34375 -2.925781 7.34375 -2.5 C 7.34375 -2 7.210938 -1.546875 6.953125 -1.140625 C 6.691406 -0.742188 6.3125 -0.425781 5.8125 -0.1875 C 5.320312 0.0390625 4.722656 0.15625 4.015625 0.15625 C 3.035156 0.15625 2.253906 -0.0703125 1.671875 -0.53125 C 1.085938 -1 0.769531 -1.613281 0.71875 -2.375 L 1.875 -2.375 C 1.894531 -2.019531 2.007812 -1.726562 2.21875 -1.5 C 2.425781 -1.28125 2.6875 -1.113281 3 -1 C 3.3125 -0.894531 3.648438 -0.84375 4.015625 -0.84375 C 4.441406 -0.84375 4.820312 -0.910156 5.15625 -1.046875 C 5.5 -1.191406 5.769531 -1.390625 5.96875 -1.640625 C 6.164062 -1.890625 6.265625 -2.179688 6.265625 -2.515625 C 6.265625 -2.816406 6.175781 -3.0625 6 -3.25 C 5.832031 -3.445312 5.609375 -3.601562 5.328125 -3.71875 C 5.054688 -3.84375 4.757812 -3.953125 4.4375 -4.046875 L 3.296875 -4.359375 C 2.578125 -4.566406 2.007812 -4.863281 1.59375 -5.25 C 1.175781 -5.632812 0.96875 -6.132812 0.96875 -6.75 C 0.96875 -7.269531 1.109375 -7.71875 1.390625 -8.09375 C 1.671875 -8.476562 2.046875 -8.773438 2.515625 -8.984375 C 2.992188 -9.203125 3.523438 -9.3125 4.109375 -9.3125 C 4.703125 -9.3125 5.226562 -9.207031 5.6875 -9 C 6.15625 -8.789062 6.523438 -8.503906 6.796875 -8.140625 C 7.066406 -7.773438 7.207031 -7.359375 7.21875 -6.890625 Z M 6.140625 -6.890625 "/></g></g></g><g fill="#ffffff" fill-opacity="1"><g transform="translate(182.093063, 207.81794)"><g><path d="M 2.21875 -9.1875 L 2.21875 0 L 1.109375 0 L 1.109375 -9.1875 Z M 2.21875 -9.1875 "/></g></g></g><g fill="#ffffff" fill-opacity="1"><g transform="translate(188.253649, 207.81794)"><g><path d="M 8.515625 -6.328125 L 7.390625 -6.328125 C 7.304688 -6.742188 7.132812 -7.097656 6.875 -7.390625 C 6.625 -7.679688 6.316406 -7.898438 5.953125 -8.046875 C 5.597656 -8.203125 5.21875 -8.28125 4.8125 -8.28125 C 4.257812 -8.28125 3.753906 -8.140625 3.296875 -7.859375 C 2.847656 -7.578125 2.488281 -7.160156 2.21875 -6.609375 C 1.957031 -6.066406 1.828125 -5.394531 1.828125 -4.59375 C 1.828125 -3.800781 1.957031 -3.128906 2.21875 -2.578125 C 2.488281 -2.035156 2.847656 -1.625 3.296875 -1.34375 C 3.753906 -1.0625 4.257812 -0.921875 4.8125 -0.921875 C 5.21875 -0.921875 5.597656 -0.992188 5.953125 -1.140625 C 6.316406 -1.285156 6.625 -1.503906 6.875 -1.796875 C 7.132812 -2.085938 7.304688 -2.445312 7.390625 -2.875 L 8.515625 -2.875 C 8.398438 -2.25 8.164062 -1.710938 7.8125 -1.265625 C 7.46875 -0.816406 7.035156 -0.472656 6.515625 -0.234375 C 5.992188 0.00390625 5.425781 0.125 4.8125 0.125 C 4.03125 0.125 3.332031 -0.0664062 2.71875 -0.453125 C 2.101562 -0.835938 1.617188 -1.378906 1.265625 -2.078125 C 0.921875 -2.785156 0.75 -3.625 0.75 -4.59375 C 0.75 -5.5625 0.921875 -6.398438 1.265625 -7.109375 C 1.617188 -7.816406 2.101562 -8.359375 2.71875 -8.734375 C 3.332031 -9.117188 4.03125 -9.3125 4.8125 -9.3125 C 5.425781 -9.3125 5.992188 -9.191406 6.515625 -8.953125 C 7.035156 -8.722656 7.46875 -8.382812 7.8125 -7.9375 C 8.164062 -7.488281 8.398438 -6.953125 8.515625 -6.328125 Z M 8.515625 -6.328125 "/></g></g></g><g fill="#ffffff" fill-opacity="1"><g transform="translate(200.269455, 207.81794)"><g/></g></g><g fill="#ffffff" fill-opacity="1"><g transform="translate(206.645582, 207.81794)"><g><path d="M 6.140625 -6.890625 C 6.085938 -7.347656 5.867188 -7.703125 5.484375 -7.953125 C 5.097656 -8.203125 4.628906 -8.328125 4.078125 -8.328125 C 3.460938 -8.328125 2.96875 -8.179688 2.59375 -7.890625 C 2.226562 -7.609375 2.046875 -7.25 2.046875 -6.8125 C 2.046875 -6.476562 2.144531 -6.207031 2.34375 -6 C 2.550781 -5.800781 2.789062 -5.644531 3.0625 -5.53125 C 3.34375 -5.425781 3.597656 -5.34375 3.828125 -5.28125 L 4.765625 -5.03125 C 5.003906 -4.96875 5.269531 -4.878906 5.5625 -4.765625 C 5.851562 -4.648438 6.132812 -4.5 6.40625 -4.3125 C 6.675781 -4.125 6.898438 -3.878906 7.078125 -3.578125 C 7.253906 -3.285156 7.34375 -2.925781 7.34375 -2.5 C 7.34375 -2 7.210938 -1.546875 6.953125 -1.140625 C 6.691406 -0.742188 6.3125 -0.425781 5.8125 -0.1875 C 5.320312 0.0390625 4.722656 0.15625 4.015625 0.15625 C 3.035156 0.15625 2.253906 -0.0703125 1.671875 -0.53125 C 1.085938 -1 0.769531 -1.613281 0.71875 -2.375 L 1.875 -2.375 C 1.894531 -2.019531 2.007812 -1.726562 2.21875 -1.5 C 2.425781 -1.28125 2.6875 -1.113281 3 -1 C 3.3125 -0.894531 3.648438 -0.84375 4.015625 -0.84375 C 4.441406 -0.84375 4.820312 -0.910156 5.15625 -1.046875 C 5.5 -1.191406 5.769531 -1.390625 5.96875 -1.640625 C 6.164062 -1.890625 6.265625 -2.179688 6.265625 -2.515625 C 6.265625 -2.816406 6.175781 -3.0625 6 -3.25 C 5.832031 -3.445312 5.609375 -3.601562 5.328125 -3.71875 C 5.054688 -3.84375 4.757812 -3.953125 4.4375 -4.046875 L 3.296875 -4.359375 C 2.578125 -4.566406 2.007812 -4.863281 1.59375 -5.25 C 1.175781 -5.632812 0.96875 -6.132812 0.96875 -6.75 C 0.96875 -7.269531 1.109375 -7.71875 1.390625 -8.09375 C 1.671875 -8.476562 2.046875 -8.773438 2.515625 -8.984375 C 2.992188 -9.203125 3.523438 -9.3125 4.109375 -9.3125 C 4.703125 -9.3125 5.226562 -9.207031 5.6875 -9 C 6.15625 -8.789062 6.523438 -8.503906 6.796875 -8.140625 C 7.066406 -7.773438 7.207031 -7.359375 7.21875 -6.890625 Z M 6.140625 -6.890625 "/></g></g></g><g fill="#ffffff" fill-opacity="1"><g transform="translate(217.529857, 207.81794)"><g><path d="M 0.609375 -8.203125 L 0.609375 -9.1875 L 7.5 -9.1875 L 7.5 -8.203125 L 4.609375 -8.203125 L 4.609375 0 L 3.5 0 L 3.5 -8.203125 Z M 0.609375 -8.203125 "/></g></g></g><g fill="#ffffff" fill-opacity="1"><g transform="translate(228.468022, 207.81794)"><g><path d="M 7.140625 -9.1875 L 8.265625 -9.1875 L 8.265625 -3.109375 C 8.265625 -2.421875 8.097656 -1.832031 7.765625 -1.34375 C 7.441406 -0.851562 7.007812 -0.476562 6.46875 -0.21875 C 5.925781 0.03125 5.332031 0.15625 4.6875 0.15625 C 4.039062 0.15625 3.445312 0.03125 2.90625 -0.21875 C 2.363281 -0.476562 1.925781 -0.851562 1.59375 -1.34375 C 1.269531 -1.832031 1.109375 -2.421875 1.109375 -3.109375 L 1.109375 -9.1875 L 2.21875 -9.1875 L 2.21875 -3.109375 C 2.21875 -2.628906 2.332031 -2.222656 2.5625 -1.890625 C 2.789062 -1.554688 3.09375 -1.300781 3.46875 -1.125 C 3.84375 -0.957031 4.25 -0.875 4.6875 -0.875 C 5.125 -0.875 5.53125 -0.957031 5.90625 -1.125 C 6.28125 -1.300781 6.578125 -1.554688 6.796875 -1.890625 C 7.023438 -2.222656 7.140625 -2.628906 7.140625 -3.109375 Z M 7.140625 -9.1875 "/></g></g></g><g fill="#ffffff" fill-opacity="1"><g transform="translate(240.663429, 207.81794)"><g><path d="M 3.953125 0 L 1.109375 0 L 1.109375 -9.1875 L 4.078125 -9.1875 C 4.960938 -9.1875 5.722656 -9.003906 6.359375 -8.640625 C 6.992188 -8.273438 7.476562 -7.75 7.8125 -7.0625 C 8.15625 -6.382812 8.328125 -5.566406 8.328125 -4.609375 C 8.328125 -3.648438 8.15625 -2.828125 7.8125 -2.140625 C 7.476562 -1.453125 6.984375 -0.921875 6.328125 -0.546875 C 5.671875 -0.179688 4.878906 0 3.953125 0 Z M 2.21875 -0.984375 L 3.875 -0.984375 C 5.019531 -0.984375 5.867188 -1.304688 6.421875 -1.953125 C 6.972656 -2.609375 7.25 -3.492188 7.25 -4.609375 C 7.25 -5.722656 6.976562 -6.597656 6.4375 -7.234375 C 5.894531 -7.878906 5.082031 -8.203125 4 -8.203125 L 2.21875 -8.203125 Z M 2.21875 -0.984375 "/></g></g></g><g fill="#ffffff" fill-opacity="1"><g transform="translate(252.571464, 207.81794)"><g><path d="M 2.21875 -9.1875 L 2.21875 0 L 1.109375 0 L 1.109375 -9.1875 Z M 2.21875 -9.1875 "/></g></g></g><g fill="#ffffff" fill-opacity="1"><g transform="translate(258.732047, 207.81794)"><g><path d="M 8.875 -4.59375 C 8.875 -3.625 8.695312 -2.785156 8.34375 -2.078125 C 7.988281 -1.378906 7.503906 -0.835938 6.890625 -0.453125 C 6.285156 -0.0664062 5.59375 0.125 4.8125 0.125 C 4.03125 0.125 3.332031 -0.0664062 2.71875 -0.453125 C 2.101562 -0.835938 1.617188 -1.378906 1.265625 -2.078125 C 0.921875 -2.785156 0.75 -3.625 0.75 -4.59375 C 0.75 -5.5625 0.921875 -6.398438 1.265625 -7.109375 C 1.617188 -7.816406 2.101562 -8.359375 2.71875 -8.734375 C 3.332031 -9.117188 4.03125 -9.3125 4.8125 -9.3125 C 5.59375 -9.3125 6.285156 -9.117188 6.890625 -8.734375 C 7.503906 -8.359375 7.988281 -7.816406 8.34375 -7.109375 C 8.695312 -6.398438 8.875 -5.5625 8.875 -4.59375 Z M 7.796875 -4.59375 C 7.796875 -5.394531 7.660156 -6.066406 7.390625 -6.609375 C 7.128906 -7.160156 6.769531 -7.578125 6.3125 -7.859375 C 5.863281 -8.140625 5.363281 -8.28125 4.8125 -8.28125 C 4.257812 -8.28125 3.753906 -8.140625 3.296875 -7.859375 C 2.847656 -7.578125 2.488281 -7.160156 2.21875 -6.609375 C 1.957031 -6.066406 1.828125 -5.394531 1.828125 -4.59375 C 1.828125 -3.800781 1.957031 -3.128906 2.21875 -2.578125 C 2.488281 -2.035156 2.847656 -1.625 3.296875 -1.34375 C 3.753906 -1.0625 4.257812 -0.921875 4.8125 -0.921875 C 5.363281 -0.921875 5.863281 -1.0625 6.3125 -1.34375 C 6.769531 -1.625 7.128906 -2.035156 7.390625 -2.578125 C 7.660156 -3.128906 7.796875 -3.800781 7.796875 -4.59375 Z M 7.796875 -4.59375 "/></g></g></g></svg>